<svg width="20" height="17" viewBox="0 0 20 17" fill="none" xmlns="http://www.w3.org/2000/svg">
<path fill-rule="evenodd" clip-rule="evenodd" d="M19.4992 8.68607C19.4992 9.00102 19.3741 9.30306 19.1514 9.52576C18.9287 9.74846 18.6266 9.87357 18.3117 9.87357L4.55332 9.87357L9.65244 14.9703C9.76285 15.0807 9.85043 15.2118 9.91018 15.3561C9.96994 15.5003 10.0007 15.6549 10.0007 15.8111C10.0007 15.9672 9.96994 16.1218 9.91018 16.2661C9.85043 16.4103 9.76285 16.5414 9.65244 16.6518C9.54203 16.7622 9.41096 16.8498 9.2667 16.9096C9.12245 16.9693 8.96783 17.0001 8.81169 17.0001C8.65555 17.0001 8.50094 16.9693 8.35668 16.9096C8.21242 16.8498 8.08135 16.7622 7.97094 16.6518L0.845941 9.52682C0.735354 9.41651 0.647614 9.28547 0.587749 9.1412C0.527884 8.99693 0.497069 8.84227 0.497069 8.68607C0.497069 8.52987 0.527884 8.37521 0.587749 8.23094C0.647614 8.08667 0.735354 7.95563 0.845942 7.84532L7.97094 0.720322C8.19392 0.497341 8.49635 0.372072 8.81169 0.372072C9.12704 0.372072 9.42946 0.497341 9.65244 0.720322C9.87542 0.943303 10.0007 1.24573 10.0007 1.56107C10.0007 1.87641 9.87542 2.17884 9.65244 2.40182L4.55332 7.49857L18.3117 7.49857C18.6266 7.49857 18.9287 7.62368 19.1514 7.84638C19.3741 8.06908 19.4992 8.37113 19.4992 8.68607Z" fill="#E2E2E2"/>
</svg>
