<svg width="104" height="13" viewBox="0 0 104 13" fill="none" xmlns="http://www.w3.org/2000/svg">
<path d="M3.52273 0.363636H0.375L4.30114 12H8.04545L11.9716 0.363636H8.82386L6.22159 8.88636H6.125L3.52273 0.363636ZM14.0071 12L14.7741 9.55682H18.7912L19.5582 12H22.581L18.6548 0.363636H14.9105L10.9844 12H14.0071ZM15.4446 7.42045L16.7344 3.29545H16.8253L18.1207 7.42045H15.4446ZM29.7642 3.85227H32.4574C32.4347 1.67614 30.7017 0.204545 27.9972 0.204545C25.3381 0.204545 23.4233 1.65341 23.4403 3.81818C23.4347 5.58523 24.6733 6.57955 26.6847 7.03977L27.9006 7.32386C29.179 7.61932 29.7528 7.96591 29.7642 8.61932C29.7528 9.32955 29.0881 9.82386 27.9574 9.82386C26.7131 9.82386 25.8949 9.24432 25.8324 8.125H23.1392C23.1733 10.8466 25.0653 12.1477 27.9915 12.1477C30.8892 12.1477 32.6051 10.8352 32.6165 8.625C32.6051 6.76705 31.3494 5.63068 29.054 5.125L28.054 4.89773C26.9972 4.67045 26.3267 4.31818 26.3494 3.625C26.3551 2.98864 26.9006 2.52841 27.9915 2.52841C29.0881 2.52841 29.6903 3.02273 29.7642 3.85227ZM33.4574 0.363636L37.7131 8.11364V12H40.5085V8.11364L44.7642 0.363636H41.6222L39.1619 5.23295H39.0597L36.5994 0.363636H33.4574ZM47.2727 12L48.0398 9.55682H52.0568L52.8239 12H55.8466L51.9205 0.363636H48.1761L44.25 12H47.2727ZM48.7102 7.42045L50 3.29545H50.0909L51.3864 7.42045H48.7102ZM60.5369 12H65.7585C68.3324 12 69.8097 10.625 69.8097 8.74432C69.8097 7.0625 68.5881 6.00568 67.179 5.94318V5.82955C68.4574 5.5625 69.3551 4.63636 69.3551 3.30682C69.3551 1.55114 68.0028 0.363636 65.3892 0.363636H60.5369V12ZM63.3494 9.73295V6.96023H65.1392C66.2131 6.96023 66.8722 7.52841 66.8722 8.42045C66.8722 9.24432 66.304 9.73295 65.0881 9.73295H63.3494ZM63.3494 5.14773V2.59659H64.9517C65.8892 2.59659 66.4858 3.07955 66.4858 3.85227C66.4858 4.67045 65.8267 5.14773 64.9062 5.14773H63.3494ZM71.1619 12H78.8153V9.71591H73.9744V0.363636H71.1619V12ZM90.8011 6.18182C90.8011 2.33523 88.3693 0.204545 85.2443 0.204545C82.108 0.204545 79.6932 2.33523 79.6932 6.18182C79.6932 10.0114 82.108 12.1591 85.2443 12.1591C88.3693 12.1591 90.8011 10.0284 90.8011 6.18182ZM87.9261 6.18182C87.9261 8.46023 86.9261 9.69318 85.2443 9.69318C83.5682 9.69318 82.5625 8.46023 82.5625 6.18182C82.5625 3.90341 83.5682 2.67045 85.2443 2.67045C86.9261 2.67045 87.9261 3.90341 87.9261 6.18182ZM100.08 4.16477H102.926C102.642 1.84659 100.574 0.204545 97.8807 0.204545C94.7727 0.204545 92.3182 2.39205 92.3182 6.19886C92.3182 9.88068 94.5795 12.1591 97.9148 12.1591C100.909 12.1591 103.051 10.3011 103.051 7.17614V5.63636H98.0341V7.6875H100.341C100.312 8.91477 99.4602 9.69318 97.9375 9.69318C96.1932 9.69318 95.1875 8.40341 95.1875 6.16477C95.1875 3.94318 96.25 2.67045 97.9375 2.67045C99.0625 2.67045 99.8295 3.22159 100.08 4.16477Z" fill="#0A3465"/>
</svg>
