<svg width="20" height="17" viewBox="0 0 20 17" fill="none" xmlns="http://www.w3.org/2000/svg">
<path fill-rule="evenodd" clip-rule="evenodd" d="M0.497069 8.68607C0.497069 8.37113 0.62218 8.06908 0.844879 7.84638C1.06758 7.62368 1.36962 7.49857 1.68457 7.49857L15.4429 7.49857L10.3438 2.40182C10.2334 2.29141 10.1458 2.16034 10.0861 2.01608C10.0263 1.87183 9.99557 1.71721 9.99557 1.56107C9.99557 1.40493 10.0263 1.25032 10.0861 1.10606C10.1458 0.961804 10.2334 0.83073 10.3438 0.720321C10.4542 0.609912 10.5853 0.522331 10.7296 0.462578C10.8738 0.402825 11.0284 0.372072 11.1846 0.372072C11.3407 0.372072 11.4953 0.402825 11.6396 0.462578C11.7838 0.522331 11.9149 0.609912 12.0253 0.720321L19.1503 7.84532C19.2609 7.95563 19.3486 8.08667 19.4085 8.23094C19.4684 8.37521 19.4992 8.52987 19.4992 8.68607C19.4992 8.84227 19.4684 8.99693 19.4085 9.1412C19.3486 9.28547 19.2609 9.41651 19.1503 9.52682L12.0253 16.6518C11.8023 16.8748 11.4999 17.0001 11.1846 17.0001C10.8692 17.0001 10.5668 16.8748 10.3438 16.6518C10.1208 16.4288 9.99557 16.1264 9.99557 15.8111C9.99557 15.4957 10.1208 15.1933 10.3438 14.9703L15.4429 9.87357L1.68457 9.87357C1.36962 9.87357 1.06758 9.74846 0.844879 9.52576C0.62218 9.30306 0.497069 9.00102 0.497069 8.68607Z" fill="#E2E2E2"/>
</svg>
